<?xml version="1.0" standalone="no"?>
<!DOCTYPE svg PUBLIC "-//W3C//DTD SVG 20010904//EN"
 "http://www.w3.org/TR/2001/REC-SVG-20010904/DTD/svg10.dtd">
<svg version="1.0" xmlns="http://www.w3.org/2000/svg"
 width="1196.000000pt" height="902.000000pt" viewBox="0 0 1196.000000 902.000000"
 preserveAspectRatio="xMidYMid meet">

<g transform="translate(0.000000,902.000000) scale(0.100000,-0.100000)"
fill="#F6F7FB" stroke="none">
<path d="M5576 8453 c4 -38 8 -74 8 -82 1 -7 -6 -17 -14 -21 -8 -4 -49 -24
-90 -44 -41 -20 -95 -49 -120 -66 -78 -51 -169 -150 -201 -216 -26 -55 -29
-72 -29 -155 0 -130 37 -242 96 -288 33 -26 44 -20 44 28 0 158 75 292 195
350 28 13 58 27 67 32 10 5 31 9 48 9 29 0 30 -1 30 -51 0 -63 13 -89 46 -89
28 0 47 12 174 111 86 67 183 129 200 129 13 0 30 34 30 62 0 34 -171 198
-285 275 -115 78 -126 83 -170 83 l-36 0 7 -67z m34 -357 c0 -11 -19 -15 -25
-6 -3 5 1 10 9 10 9 0 16 -2 16 -4z"/>
<path d="M1872 8175 c-51 -13 -104 -31 -117 -39 -13 -9 -29 -16 -36 -16 -6 0
-63 -25 -127 -56 -65 -31 -135 -63 -157 -71 -22 -9 -44 -20 -49 -25 -6 -4 -16
-8 -23 -8 -14 0 -104 -40 -313 -138 -121 -57 -158 -100 -189 -217 -17 -62 -14
-79 29 -169 22 -46 40 -90 40 -97 0 -8 67 -147 148 -309 81 -162 167 -335 189
-385 40 -86 100 -213 176 -375 86 -181 157 -294 220 -353 34 -32 77 -68 96
-79 l33 -21 112 32 c61 18 120 37 131 41 11 4 40 13 65 20 123 35 256 83 336
122 49 24 107 49 129 56 22 8 76 31 120 51 44 21 93 41 108 45 51 12 74 48 80
128 9 95 -12 172 -78 298 -13 25 -38 83 -55 130 -18 47 -40 104 -51 127 -10
24 -19 45 -19 47 0 4 -27 63 -110 241 -15 33 -34 76 -40 95 -14 36 -52 123
-100 225 -15 33 -35 79 -44 103 -16 43 -149 307 -165 326 -5 6 -39 70 -76 141
-37 72 -72 136 -77 143 -15 18 -81 14 -186 -13z m160 -42 c8 -10 35 -56 60
-103 25 -47 69 -128 98 -180 80 -144 239 -496 407 -900 47 -113 115 -272 151
-355 36 -82 66 -165 66 -184 l1 -35 -90 -34 c-161 -61 -339 -121 -343 -117 -3
2 3 16 12 29 33 52 4 137 -54 158 -30 10 -41 28 -17 28 14 0 237 69 330 102
31 11 57 25 57 30 0 6 -42 96 -94 202 -51 105 -117 245 -146 311 -29 66 -65
147 -80 180 -15 33 -40 89 -56 125 -28 64 -113 233 -181 360 -63 118 -127 210
-150 216 -48 13 -538 -172 -776 -293 -81 -41 -109 -60 -113 -78 -6 -25 11 -91
26 -100 5 -3 54 -94 108 -203 54 -108 150 -300 214 -427 63 -126 139 -283 168
-347 29 -65 73 -148 99 -185 l47 -68 54 1 c34 0 73 8 103 22 132 61 284 118
293 110 2 -3 0 -17 -6 -32 -24 -65 -6 -137 41 -157 16 -6 29 -14 29 -18 0 -3
-71 -34 -158 -69 -286 -113 -305 -118 -335 -84 -9 9 -40 69 -70 132 -30 63
-93 194 -139 290 -47 96 -100 209 -118 250 -18 41 -41 95 -52 120 -30 67 -229
463 -239 476 -41 50 -212 401 -205 420 4 12 282 154 301 154 6 0 92 37 117 51
10 5 22 9 27 9 5 0 65 26 133 58 271 129 327 149 419 151 32 1 50 -4 61 -16z
m15 -275 c61 -98 281 -548 341 -698 34 -85 67 -158 176 -384 42 -88 75 -165
73 -170 -3 -6 -31 -19 -63 -29 -312 -95 -371 -114 -537 -179 -16 -6 -69 -30
-119 -54 -49 -24 -97 -44 -106 -44 -17 1 -94 147 -174 330 -18 41 -61 131 -97
200 -35 69 -123 242 -196 386 -72 144 -146 282 -163 307 -18 25 -32 51 -32 57
0 6 21 20 48 32 26 11 71 31 100 44 29 13 55 24 57 24 2 0 28 11 57 24 143 65
544 214 580 215 9 1 32 -24 55 -61z m-1102 -297 c-8 -61 -21 -82 -35 -61 -12
16 -6 72 11 117 9 25 11 26 21 10 5 -10 7 -39 3 -66z m75 -117 c0 -17 -6 -46
-13 -64 l-14 -32 -13 31 c-12 30 -8 100 7 124 10 17 33 -24 33 -59z m80 -140
c0 -38 -24 -104 -37 -104 -21 0 -26 48 -9 84 9 19 16 42 16 51 0 14 3 15 15 5
8 -7 15 -23 15 -36z m50 -196 c-6 -21 -15 -36 -20 -33 -15 9 -12 38 7 81 16
36 17 37 21 14 2 -13 -1 -41 -8 -62z m95 -87 c16 -36 16 -43 3 -78 -9 -20 -19
-38 -24 -40 -5 -1 -17 14 -27 34 -17 34 -17 37 0 79 10 24 21 44 24 44 3 0 14
-18 24 -39z m85 -178 c20 -45 20 -50 5 -90 -9 -24 -20 -43 -24 -43 -24 0 -40
101 -25 158 9 33 21 27 44 -25z m110 -259 c0 -12 -6 -37 -14 -55 l-14 -33 -26
53 c-27 52 -27 53 -10 98 l18 45 22 -43 c13 -24 23 -54 24 -65z m60 -108 c0
-2 6 -19 14 -37 13 -31 12 -39 -4 -73 l-18 -39 -16 31 c-19 37 -20 62 -4 97 9
21 28 35 28 21z m91 -183 c10 -27 -5 -113 -20 -113 -3 0 -14 13 -23 30 -15 27
-15 32 -1 70 19 47 30 50 44 13z m1209 -17 c0 -16 -24 -38 -33 -30 -8 9 11 44
23 44 6 0 10 -6 10 -14z m-96 -51 c-3 -7 -19 -18 -35 -24 -39 -13 -40 12 -2
33 31 16 45 13 37 -9z m-158 -63 c-17 -19 -84 -47 -93 -39 -15 16 12 45 55 58
50 15 64 8 38 -19z m-883 -27 c15 -31 15 -38 2 -70 -9 -19 -17 -35 -20 -35 -3
0 -11 15 -19 34 -11 26 -11 41 -2 70 6 20 13 36 17 36 3 0 13 -16 22 -35z
m703 -33 c-18 -35 -30 -44 -83 -64 -28 -11 -45 -13 -49 -6 -12 19 32 62 82 79
66 23 67 23 50 -9z m-206 -63 c0 -23 -21 -47 -51 -58 -44 -15 -49 -14 -49 12
0 18 10 27 43 39 51 20 57 21 57 7z m-423 -35 c7 -19 -16 -64 -34 -64 -16 0
-16 5 -1 47 13 36 25 42 35 17z m247 -39 c-15 -23 -81 -51 -93 -39 -11 10 16
37 49 49 56 20 63 18 44 -10z m-174 -46 c-7 -16 -16 -29 -21 -29 -12 0 -12 1
7 46 9 22 19 33 21 26 3 -7 0 -26 -7 -43z"/>
<path d="M1665 7990 c-11 -4 -69 -27 -130 -50 -60 -24 -138 -56 -173 -71 -34
-16 -67 -29 -72 -29 -26 0 -98 -44 -108 -65 -9 -20 -9 -25 2 -25 8 0 16 7 20
15 3 8 13 15 23 15 13 0 14 -3 5 -12 -42 -42 20 -36 147 13 58 22 142 54 186
71 44 16 94 36 110 43 17 7 49 21 72 30 56 22 61 41 16 60 -39 16 -67 18 -98
5z"/>
<path d="M1938 7301 c-65 -14 -164 -69 -208 -117 -59 -65 -92 -142 -97 -228
-5 -84 10 -119 49 -124 32 -4 64 27 72 71 13 76 19 97 28 97 5 0 7 -13 3 -30
-9 -42 4 -110 23 -117 18 -7 53 32 82 94 12 25 32 49 50 58 38 19 38 15 0 -25
-25 -27 -30 -40 -30 -84 1 -84 58 -128 138 -106 75 20 97 74 67 160 -15 42
-15 42 8 35 51 -17 81 -11 95 17 10 21 10 33 2 49 -16 29 -8 33 27 13 38 -22
80 -13 89 20 3 14 -2 42 -14 68 -47 107 -118 149 -257 154 -49 2 -107 -1 -127
-5z m177 -46 c22 -4 55 -14 73 -22 54 -25 148 -159 98 -140 -7 3 -44 28 -82
55 -80 57 -118 72 -185 72 -97 0 -196 -57 -253 -145 -27 -43 -56 -125 -56
-163 0 -22 -25 -41 -37 -28 -11 11 -3 104 13 143 28 67 75 133 118 162 63 44
196 83 251 75 11 -1 38 -6 60 -9z m-110 -106 c-16 -5 -46 -15 -65 -21 -19 -6
-57 -26 -85 -46 l-50 -35 25 32 c38 50 96 80 155 80 46 -1 48 -1 20 -10z m100
-58 c44 -20 79 -54 74 -70 -3 -7 -24 0 -54 15 -64 34 -131 36 -198 4 -46 -22
-62 -42 -81 -102 -8 -25 -26 -22 -26 3 0 35 31 89 66 116 70 53 150 66 219 34z
m-40 -136 c33 -32 36 -109 6 -125 -23 -12 -91 -13 -109 -2 -22 14 -27 78 -8
107 31 48 76 56 111 20z"/>
<path d="M6027 8053 c-4 -4 -4 -22 -1 -40 7 -39 -7 -79 -50 -143 -59 -87 -132
-140 -279 -199 -46 -18 -60 -13 -105 39 -46 54 -62 61 -62 31 0 -11 -8 -26
-18 -33 -10 -7 -42 -48 -70 -90 -115 -170 -130 -210 -80 -206 13 0 64 -13 113
-31 82 -29 256 -87 330 -110 17 -5 51 -13 76 -16 37 -6 47 -4 52 9 8 21 -1 44
-30 79 -13 16 -23 35 -23 42 0 8 26 34 58 58 72 56 121 115 164 198 31 61 33
69 33 174 0 133 -5 154 -51 205 -37 41 -45 45 -57 33z m50 -231 c-8 -85 -18
-124 -38 -154 -11 -14 -19 -30 -19 -35 -1 -13 -40 -53 -110 -113 -36 -30 -67
-58 -70 -61 -3 -4 -15 -9 -27 -13 -27 -9 -31 -42 -8 -72 21 -28 20 -47 -2 -34
-10 5 -94 35 -188 66 -93 30 -173 59 -177 63 -6 5 76 158 96 178 3 4 22 -12
42 -35 40 -47 59 -51 106 -22 18 11 39 20 46 20 20 0 103 41 162 81 64 42 118
105 151 172 29 59 43 42 36 -41z"/>
<path d="M8071 8025 c-46 -25 -141 -130 -168 -184 -21 -43 -28 -74 -31 -135
-4 -83 5 -93 28 -34 51 129 94 201 165 274 41 43 75 81 75 86 0 12 -41 8 -69
-7z"/>
<path d="M8164 7925 c-33 -15 -99 -95 -133 -162 -21 -41 -30 -143 -13 -143 4
0 22 31 40 69 51 109 108 177 165 198 32 12 47 23 47 35 0 14 -8 18 -37 17
-21 0 -52 -7 -69 -14z"/>
<path d="M8810 7930 c-14 -4 -44 -8 -67 -9 -55 -1 -81 -34 -64 -81 15 -43 6
-56 -46 -70 -26 -6 -58 -20 -73 -30 -26 -18 -26 -18 -83 17 -70 43 -92 39
-129 -20 -15 -23 -39 -53 -53 -67 -14 -13 -25 -31 -25 -41 0 -16 34 -47 85
-75 17 -10 19 -20 16 -60 -1 -27 -8 -52 -15 -56 -6 -4 -35 -8 -63 -8 -89 0
-112 -44 -67 -128 8 -15 17 -44 20 -64 10 -62 24 -66 156 -42 32 5 43 1 80
-27 24 -19 45 -35 47 -36 2 -2 -1 -28 -8 -59 -12 -52 -11 -58 6 -74 20 -20
168 -52 200 -44 26 7 42 38 45 89 3 34 7 41 33 48 17 5 38 13 47 18 34 17 55
9 96 -37 35 -40 45 -45 68 -40 52 13 174 120 174 152 0 10 -19 44 -42 74 -40
53 -41 55 -29 97 6 24 11 57 11 73 0 27 3 30 34 30 42 0 100 38 104 69 5 33
-37 161 -61 189 -16 17 -31 22 -69 22 -27 0 -59 -5 -70 -11 -16 -9 -26 -7 -48
10 -42 30 -78 37 -87 15 -4 -12 0 -22 15 -32 11 -7 33 -25 49 -38 22 -19 35
-24 58 -19 116 23 115 24 140 -63 20 -68 11 -82 -54 -82 -26 0 -52 -5 -59 -12
-7 -7 -12 -35 -12 -63 0 -28 -7 -72 -16 -98 -12 -35 -13 -51 -4 -66 6 -12 15
-21 19 -21 5 0 20 -15 35 -34 l26 -35 -47 -45 c-26 -25 -55 -46 -65 -46 -10 0
-34 18 -54 40 -43 47 -75 58 -107 37 -13 -8 -43 -21 -68 -28 -61 -17 -69 -26
-69 -71 0 -65 -12 -77 -62 -65 -70 16 -88 25 -88 46 0 11 5 23 10 26 6 3 10
21 10 38 0 27 -7 37 -43 60 -23 16 -57 39 -75 52 l-32 23 -52 -20 c-70 -26
-92 -19 -107 34 -6 24 -17 53 -23 65 -20 41 -5 53 66 53 78 0 97 14 89 64 -3
22 0 42 12 60 24 36 15 50 -49 79 -31 14 -56 29 -56 32 0 14 86 115 98 115 7
0 34 -11 60 -25 53 -28 72 -30 110 -12 15 8 53 19 84 26 71 15 82 28 75 86 -6
42 -5 45 21 52 15 4 47 7 72 7 l45 1 5 -45 c4 -32 10 -46 22 -48 35 -7 46 84
16 141 -9 18 -70 22 -118 7z"/>
<path d="M572 7833 c-56 -83 -83 -196 -65 -278 14 -62 37 -53 41 15 2 61 17
125 42 185 26 62 32 105 15 105 -7 0 -22 -12 -33 -27z"/>
<path d="M9775 7840 c-11 -4 -45 -11 -75 -14 -77 -10 -139 -28 -144 -43 -3 -7
6 -40 20 -73 l26 -59 -28 -25 c-32 -28 -69 -33 -109 -14 -38 17 -70 -5 -111
-79 -43 -75 -39 -96 21 -123 24 -11 47 -25 50 -30 13 -21 -17 -40 -62 -40 -24
0 -58 -7 -75 -16 l-31 -16 7 -79 c4 -44 12 -90 18 -104 10 -23 17 -25 65 -24
49 2 57 -1 88 -31 43 -41 43 -56 5 -100 -16 -19 -29 -40 -30 -47 0 -23 115
-93 155 -93 9 0 30 14 47 30 41 41 58 49 93 43 37 -7 65 -30 65 -54 0 -10 5
-30 12 -45 l12 -27 103 6 c59 3 110 10 118 17 10 9 15 32 15 76 0 41 4 64 11
64 6 0 29 16 50 35 44 39 59 42 94 19 13 -8 34 -14 47 -12 50 7 132 179 112
235 -10 28 -24 39 -66 48 -31 6 -36 20 -40 104 l-3 55 39 11 c61 17 66 41 25
122 -50 100 -88 160 -105 167 -20 8 -46 -6 -96 -52 -24 -22 -42 -32 -46 -25
-16 25 -79 53 -120 53 -51 0 -82 14 -82 38 0 29 -27 94 -41 102 -8 4 -23 4
-34 0z m34 -105 l16 -60 65 -6 c40 -3 87 -16 122 -32 31 -15 62 -27 68 -27 7
0 30 16 53 35 38 33 41 34 59 18 26 -23 92 -159 84 -172 -4 -6 -22 -13 -42
-17 -46 -8 -57 -30 -44 -91 5 -26 11 -66 12 -88 3 -36 7 -42 47 -62 54 -27 61
-38 51 -72 -13 -47 -60 -131 -73 -131 -6 1 -23 7 -37 15 -40 23 -73 18 -106
-16 -16 -17 -45 -38 -64 -48 -34 -16 -35 -18 -35 -76 l0 -60 -40 -13 c-22 -7
-58 -12 -80 -10 -38 3 -40 5 -50 45 -13 54 -20 60 -89 78 -64 17 -75 14 -120
-34 -35 -37 -40 -37 -94 -11 -42 20 -51 33 -32 45 10 6 50 78 50 90 0 3 -15
21 -32 39 -18 18 -41 43 -50 55 -14 17 -29 21 -73 21 -61 0 -63 2 -67 90 l-3
45 50 9 c70 11 92 24 110 62 21 44 13 57 -45 78 -59 21 -62 33 -20 100 24 37
35 46 48 41 9 -4 34 -13 54 -18 33 -10 41 -8 65 11 16 13 43 29 61 38 37 17
37 26 -4 97 -13 23 -24 47 -24 53 0 12 137 43 174 40 15 -1 23 -15 35 -61z"/>
<path d="M9757 7560 c-62 -11 -118 -48 -139 -91 -48 -101 -65 -238 -35 -294
36 -69 110 -123 202 -146 102 -26 246 36 304 131 17 29 21 51 21 128 0 137
-27 181 -146 240 -69 35 -135 45 -207 32z m191 -84 c64 -32 96 -75 113 -148
16 -75 1 -128 -49 -181 -50 -52 -93 -69 -178 -70 -61 0 -79 4 -119 27 -61 36
-105 104 -105 164 0 70 27 149 60 174 16 11 30 29 33 38 6 23 35 29 123 25 52
-2 85 -10 122 -29z"/>
<path d="M9810 7396 c-45 -14 -80 -67 -80 -118 0 -32 7 -47 34 -74 58 -58 126
-43 167 38 18 35 20 47 10 78 -20 66 -71 96 -131 76z m62 -63 c24 -22 23 -62
-4 -90 -27 -29 -51 -29 -78 -1 -22 24 -27 77 -8 96 17 17 68 15 90 -5z"/>
<path d="M704 7808 c-50 -55 -59 -83 -56 -175 3 -91 22 -153 46 -153 13 0 16
16 16 99 0 55 4 102 9 106 5 3 12 18 16 34 3 16 17 43 31 62 32 43 31 59 -4
59 -19 0 -38 -11 -58 -32z"/>
<path d="M8735 7648 c-65 -22 -95 -40 -128 -78 -84 -99 -73 -255 22 -308 46
-26 149 -30 202 -8 71 30 119 106 119 189 0 90 -33 144 -120 196 -39 23 -51
24 -95 9z m84 -69 c59 -36 70 -57 71 -129 0 -82 -21 -119 -85 -150 -115 -56
-216 18 -201 146 8 68 27 103 73 131 47 28 98 29 142 2z"/>
<path d="M8704 7472 c-18 -11 -26 -62 -13 -78 14 -17 78 -18 100 -1 20 16 31
46 24 68 -9 27 -55 25 -62 -1 -3 -11 -9 -20 -14 -20 -5 0 -9 9 -9 20 0 21 -8
25 -26 12z"/>
<path d="M3092 7365 c-34 -42 -171 -149 -219 -172 -68 -32 -64 -93 9 -136 42
-24 88 -70 171 -171 46 -55 86 -63 106 -20 10 24 9 31 -16 67 -15 21 -49 62
-75 90 -26 28 -45 53 -43 55 3 3 36 0 74 -7 39 -6 100 -11 138 -11 95 0 225
-22 368 -61 39 -11 88 -24 110 -30 22 -6 51 -15 65 -19 14 -4 45 -13 70 -20
143 -40 222 -72 302 -124 150 -96 400 -318 483 -428 47 -62 108 -161 155 -252
46 -88 85 -87 85 2 0 167 -195 433 -490 668 -222 177 -288 207 -705 315 -208
54 -306 70 -472 76 -92 3 -172 9 -179 13 -8 5 2 20 29 44 41 38 102 123 102
144 0 25 -40 11 -68 -23z"/>
<path d="M10507 7158 c4 -63 1 -98 -12 -143 -10 -33 -20 -82 -22 -110 -5 -48
-5 -49 13 -33 35 31 75 126 86 200 11 81 5 113 -24 146 -40 41 -48 30 -41 -60z"/>
<path d="M10666 7150 c-3 -14 -10 -56 -16 -94 -6 -37 -17 -87 -24 -110 -26
-79 -38 -134 -34 -152 5 -26 82 76 103 135 22 65 20 192 -4 222 l-19 24 -6
-25z"/>
<path d="M5925 7086 c-10 -7 -24 -33 -31 -57 -6 -24 -26 -82 -43 -129 -33 -92
-38 -130 -18 -130 19 0 73 55 87 90 17 40 26 38 33 -7 3 -21 13 -85 22 -143
16 -103 16 -276 -1 -442 -7 -70 10 -78 51 -25 82 108 87 469 10 660 -10 24 17
23 39 -2 10 -11 33 -27 52 -36 76 -36 100 36 32 96 -18 16 -55 43 -83 61 -27
17 -66 42 -86 55 -41 27 -40 27 -64 9z"/>
<path d="M7810 7027 c0 -7 36 -40 80 -73 44 -32 80 -64 80 -71 0 -6 -15 -14
-32 -18 -93 -19 -281 -99 -365 -156 -343 -231 -618 -552 -626 -730 -2 -43 1
-54 15 -57 13 -2 26 16 54 75 56 118 128 218 228 318 231 230 399 349 596 422
115 42 160 52 160 36 0 -5 -9 -21 -20 -38 -34 -49 -50 -95 -50 -141 0 -34 4
-44 21 -49 30 -10 63 26 102 109 17 39 53 94 78 122 59 65 58 94 -5 119 -22 9
-68 34 -101 55 -110 71 -215 109 -215 77z"/>
<path d="M8865 7020 c-82 -21 -85 -24 -85 -89 l0 -60 -55 -35 c-43 -28 -60
-34 -78 -27 -12 5 -47 10 -77 12 -52 4 -55 3 -77 -31 -12 -19 -27 -40 -31 -46
-37 -44 -35 -53 18 -107 54 -54 56 -63 31 -129 -8 -21 -17 -28 -38 -28 -28 0
-93 -33 -93 -47 3 -61 23 -160 36 -175 20 -21 70 -24 109 -6 23 10 29 8 65
-27 37 -36 51 -65 32 -65 -15 0 -52 -77 -46 -94 8 -20 151 -88 178 -84 11 2
37 25 58 53 38 51 79 73 97 52 5 -7 17 -32 27 -57 23 -60 32 -70 62 -70 41 0
162 51 174 73 6 12 8 46 5 80 -5 55 -3 61 21 83 34 29 38 29 74 -1 16 -14 36
-25 45 -25 19 0 69 53 111 120 29 45 32 56 23 77 -6 13 -30 33 -55 43 -57 26
-68 41 -64 87 3 38 3 38 50 41 65 4 73 17 59 98 -13 75 -63 161 -98 170 -12 3
-36 -1 -54 -10 -44 -22 -56 -20 -75 9 -18 28 -62 51 -134 70 -40 10 -51 20
-94 83 -52 75 -58 78 -121 62z m73 -86 c41 -70 62 -94 81 -94 10 0 42 -7 72
-16 40 -12 65 -28 96 -62 l42 -46 45 23 c25 13 52 21 60 18 23 -9 55 -80 58
-129 l3 -43 -50 0 c-71 0 -76 -6 -69 -73 10 -88 18 -100 79 -127 32 -15 55
-31 55 -40 0 -8 -16 -40 -36 -70 -35 -52 -64 -69 -79 -45 -3 6 -20 17 -37 26
-29 15 -31 15 -85 -21 -54 -36 -55 -38 -49 -73 22 -116 25 -106 -39 -130 -85
-33 -92 -31 -110 33 -23 76 -34 85 -98 78 -61 -7 -73 -15 -95 -62 -25 -52 -49
-52 -130 -3 l-22 14 30 35 c44 50 40 70 -32 131 -57 50 -65 53 -97 47 -75 -14
-74 -15 -87 48 -13 64 -15 61 48 72 52 8 62 22 77 109 l12 77 -43 38 -43 38
20 43 20 42 55 -6 c30 -3 64 -8 76 -11 14 -5 33 3 62 27 23 18 51 40 62 48 13
9 23 30 26 55 12 88 14 91 72 94 17 1 29 -11 50 -45z"/>
<path d="M8813 6739 c-64 -25 -115 -81 -134 -146 -7 -25 -13 -85 -13 -133 -1
-86 -1 -87 38 -134 65 -80 105 -100 207 -104 172 -7 266 54 305 200 23 88 -13
197 -89 268 -72 67 -210 89 -314 49z m197 -52 c56 -19 87 -44 114 -89 55 -96
55 -171 -1 -246 -38 -50 -77 -70 -157 -77 -95 -9 -151 6 -196 54 -78 81 -81
239 -8 308 62 58 166 79 248 50z"/>
<path d="M8858 6557 c-56 -47 -63 -101 -18 -146 20 -20 45 -32 73 -36 115 -17
162 76 85 169 -25 31 -35 36 -71 36 -29 0 -50 -7 -69 -23z m93 -30 c43 -33 48
-100 8 -110 -37 -10 -109 29 -109 58 0 7 9 24 21 39 22 28 54 33 80 13z"/>
<path d="M2992 6463 c2 -54 -1 -131 -5 -170 -7 -58 -5 -73 5 -73 34 1 78 109
78 192 0 51 -29 117 -61 136 -18 12 -19 9 -17 -85z"/>
<path d="M3110 6470 c0 -96 22 -250 36 -250 49 0 61 150 20 245 -32 72 -56 74
-56 5z"/>
<path d="M5745 5964 c-125 -13 -137 -15 -245 -41 -142 -33 -245 -79 -370 -165
-137 -93 -177 -136 -243 -258 -42 -79 -73 -168 -82 -235 -10 -77 -15 -81 -67
-62 -83 30 -164 40 -343 41 -184 1 -189 0 -330 -47 -131 -43 -224 -108 -300
-208 -166 -223 -195 -539 -69 -766 13 -23 24 -44 24 -46 0 -2 -66 -7 -148 -10
-81 -3 -159 -10 -172 -15 -14 -5 -43 -15 -65 -22 -59 -18 -167 -93 -221 -153
-134 -150 -204 -314 -204 -480 0 -72 24 -203 45 -257 24 -58 110 -202 134
-224 17 -16 17 -20 3 -59 -25 -71 -21 -144 12 -211 34 -68 82 -106 189 -149
113 -46 150 -53 417 -88 141 -18 2658 -4 2689 15 5 4 119 11 253 16 469 20
755 45 1126 101 34 5 90 13 125 18 65 10 238 39 272 45 107 22 368 100 485
146 96 37 241 114 282 149 74 63 104 134 91 214 -5 32 -17 52 -53 87 l-46 44
56 56 c76 74 120 166 146 300 25 134 20 173 -44 311 -44 93 -104 163 -186 217
-149 100 -265 138 -396 130 -44 -3 -80 -1 -80 3 0 4 9 28 20 54 35 81 45 165
31 247 -28 156 -74 265 -154 363 -142 172 -219 243 -327 302 -173 94 -311 121
-525 103 -167 -14 -237 -38 -371 -127 -54 -36 -74 -37 -74 -2 0 69 -146 281
-280 407 -123 116 -319 203 -540 241 -195 33 -281 36 -465 15z m320 -59 c194
-17 351 -60 485 -133 222 -121 440 -412 440 -589 0 -54 25 -59 57 -9 27 42
184 148 249 169 89 28 278 42 384 28 247 -34 378 -118 572 -366 115 -147 157
-257 157 -415 1 -88 0 -89 -70 -248 -33 -74 -23 -80 85 -53 91 23 126 23 236
-5 155 -39 301 -152 368 -284 100 -201 50 -438 -129 -605 -52 -47 -53 -50 -29
-53 83 -12 130 -159 76 -239 -43 -63 -175 -141 -349 -205 -205 -75 -300 -98
-612 -148 -38 -6 -95 -15 -125 -20 -103 -17 -191 -28 -475 -59 -229 -26 -605
-48 -1010 -61 -503 -16 -2642 -18 -2735 -2 -163 28 -198 35 -287 65 -99 32
-161 74 -189 129 -12 23 -15 53 -13 122 4 88 3 93 -27 136 -45 65 -82 142
-111 229 -21 64 -25 96 -26 201 -1 107 2 134 22 189 36 98 88 179 165 256 128
127 232 165 454 165 161 0 175 6 149 62 -113 244 -126 349 -71 568 47 186 185
341 367 410 125 47 426 61 577 27 101 -23 142 -33 162 -42 18 -7 22 4 48 125
7 30 19 75 27 100 82 252 312 438 638 514 39 10 79 19 90 22 41 11 292 32 335
28 25 -2 77 -6 115 -9z"/>
<path d="M5195 5603 c-63 -16 -188 -139 -203 -199 -21 -81 -22 -110 -8 -129
14 -20 15 -20 21 0 21 62 32 85 67 138 41 61 95 106 164 136 23 10 45 24 49
31 15 24 -35 37 -90 23z"/>
<path d="M5284 5500 c-53 -27 -126 -100 -152 -153 -43 -88 -55 -157 -27 -157
8 0 15 4 15 8 0 15 98 156 137 195 42 43 68 57 128 66 49 7 51 21 5 43 -46 22
-57 22 -106 -2z"/>
<path d="M7740 4599 c-336 -16 -691 -50 -845 -79 -33 -7 -74 -11 -92 -11 -25
1 -44 -9 -90 -50 -32 -29 -59 -53 -60 -54 -1 0 2 -55 8 -121 6 -76 15 -124 24
-133 11 -11 53 -15 191 -15 l177 -1 1 -455 c0 -250 -3 -472 -7 -494 -8 -37 -7
-40 45 -90 75 -72 98 -77 353 -74 l210 3 -3 90 c-1 50 -7 155 -12 235 -8 114
-33 585 -43 790 l-2 35 130 3 c92 2 136 7 152 17 12 8 35 43 51 77 29 62 30
65 23 178 -7 114 -20 162 -44 158 -7 0 -82 -5 -167 -9z m140 -116 c1 -27 5
-67 9 -90 5 -27 4 -46 -2 -52 -6 -6 -45 -11 -86 -11 -42 0 -111 -7 -154 -15
-43 -8 -89 -12 -103 -9 -32 8 -36 -7 -23 -91 6 -38 14 -187 19 -330 11 -330
28 -686 36 -747 l7 -48 -161 0 -161 0 0 145 c-1 80 -5 230 -11 333 -5 103 -12
242 -15 310 -4 68 -11 146 -16 175 -16 81 -19 180 -7 204 6 12 8 29 5 37 -7
17 -47 22 -47 6 0 -6 -65 -10 -174 -10 l-173 0 -6 53 c-3 28 -9 66 -12 84 l-7
31 68 6 c38 4 112 11 164 16 216 21 611 46 758 48 l92 2 0 -47z m-754 -1310
c-10 -10 -19 5 -10 18 6 11 8 11 12 0 2 -7 1 -15 -2 -18z"/>
<path d="M5115 4583 c-244 -6 -751 -50 -865 -74 -25 -5 -74 -11 -110 -13 -61
-4 -69 -7 -122 -53 l-57 -48 5 -100 c3 -55 10 -117 15 -137 l10 -38 112 -1
c62 -1 149 -1 193 1 l82 2 6 -39 c23 -161 47 -585 36 -649 l-5 -29 -130 -6
c-126 -6 -290 -25 -307 -35 -14 -9 -10 -258 5 -277 6 -9 35 -28 62 -43 28 -15
68 -36 90 -48 38 -19 53 -21 255 -18 118 1 253 7 300 12 47 5 139 10 205 10
159 0 385 18 402 31 9 8 13 40 13 106 0 103 -14 179 -35 187 -37 14 -239 18
-314 6 -45 -7 -84 -10 -87 -7 -10 9 -4 307 7 392 5 44 11 161 12 260 l2 180
135 6 c74 3 142 8 150 13 17 8 64 79 78 117 10 26 -8 266 -21 287 -5 6 -14 11
-20 10 -7 -1 -52 -3 -102 -5z m85 -79 c0 -14 -21 -19 -33 -7 -9 9 13 34 24 27
5 -3 9 -12 9 -20z m-113 0 c-3 -3 -12 -4 -19 -1 -8 3 -5 6 6 6 11 1 17 -2 13
-5z m-1033 -234 c4 -16 2 -32 -8 -45 -13 -18 -15 -16 -21 30 -4 28 -12 58 -17
68 -7 14 -5 22 9 32 16 12 19 10 24 -23 3 -20 9 -48 13 -62z m1106 -29 c0 -15
-27 -19 -155 -25 -146 -7 -136 1 22 18 65 7 121 14 126 15 4 0 7 -3 7 -8z
m-780 -51 c0 -6 -50 -9 -132 -8 -132 2 -132 2 -43 8 151 10 175 10 175 0z
m115 -619 c5 -142 4 -192 -4 -187 -7 5 -11 58 -12 159 0 156 -7 236 -32 392
-22 133 -20 188 6 222 l22 28 6 -210 c3 -116 10 -297 14 -404z m-40 -242 c19
-19 18 -19 -44 -19 -35 0 -115 -5 -177 -12 -93 -10 -118 -9 -139 2 -37 20 -31
30 18 30 23 1 69 7 102 14 83 18 213 10 240 -15z m-417 -72 c15 -18 28 -175
13 -161 -6 5 -15 42 -20 81 -5 40 -12 76 -16 82 -9 15 10 14 23 -2z"/>
<path d="M5750 4326 c-71 -18 -120 -49 -190 -119 -145 -146 -230 -357 -230
-565 1 -241 93 -387 316 -500 105 -53 171 -67 319 -66 135 1 194 10 280 44
213 82 368 245 433 453 20 66 22 255 3 312 -110 323 -325 457 -731 454 -85 -1
-175 -7 -200 -13z m392 -57 c78 -16 192 -50 202 -60 6 -5 1 -24 -13 -49 -24
-43 -24 -40 -5 -178 6 -50 5 -55 -33 -110 -88 -125 -103 -185 -57 -221 15 -12
38 -21 51 -21 13 0 59 -7 101 -16 64 -13 82 -21 109 -49 32 -35 73 -52 94 -40
26 17 -60 -123 -108 -176 -74 -80 -201 -162 -293 -190 -74 -22 -271 -41 -292
-28 -17 11 1 45 47 90 42 40 45 48 45 94 0 116 -39 161 -119 136 -80 -24 -99
-9 -126 93 -22 83 -21 86 24 86 56 0 83 26 90 86 6 46 8 50 52 71 55 26 116
94 125 139 7 36 -15 91 -48 121 -22 20 -91 23 -181 8 l-48 -8 -62 60 c-34 33
-68 62 -76 64 -8 3 -11 10 -8 16 13 20 95 63 149 77 64 18 304 21 380 5z m343
-162 c98 -103 155 -244 155 -387 0 -109 -48 -144 -102 -76 -21 27 -36 35 -70
39 -100 11 -178 30 -178 44 0 17 38 100 61 133 9 14 22 44 29 66 11 36 10 49
-4 90 -9 26 -16 58 -16 72 0 32 30 82 49 82 9 0 43 -28 76 -63z m-868 23 c18
-10 39 -32 47 -47 21 -41 67 -80 101 -87 17 -4 57 1 89 9 54 14 60 14 77 -1
36 -32 24 -64 -51 -141 -70 -70 -70 -71 -70 -126 0 -58 -10 -70 -49 -60 -31 8
-69 -5 -81 -28 -15 -26 5 -159 32 -211 28 -57 56 -71 135 -67 l68 4 3 -39 c3
-30 -2 -45 -21 -65 -38 -41 -57 -74 -57 -98 0 -34 -15 -36 -88 -12 -266 88
-389 267 -367 534 13 153 63 296 143 405 25 34 41 50 52 50 3 0 19 -9 37 -20z"/>
<path d="M6283 3560 c-13 -5 -23 -14 -23 -20 0 -5 0 -12 0 -15 0 -3 -7 -23
-16 -46 -16 -38 -16 -42 3 -67 26 -35 87 -66 117 -58 40 10 85 54 91 90 9 45
-17 103 -50 116 -32 12 -92 12 -122 0z m105 -92 c8 -65 -39 -87 -92 -44 l-30
23 27 27 c21 21 35 26 60 24 26 -2 33 -8 35 -30z"/>
<path d="M3077 3634 c-36 -36 -52 -116 -36 -180 17 -66 35 -108 53 -123 15
-13 40 -6 32 8 -14 22 -24 180 -15 221 22 96 22 100 6 100 -8 0 -26 -12 -40
-26z"/>
<path d="M3192 3601 c-16 -28 -22 -56 -22 -100 0 -67 17 -148 32 -157 21 -13
26 16 30 154 4 154 -2 170 -40 103z"/>
<path d="M8525 3226 c-44 -23 -114 -57 -155 -76 -41 -19 -82 -40 -90 -48 -40
-37 233 38 294 80 40 28 66 57 66 75 0 21 -30 14 -115 -31z"/>
<path d="M8716 3160 c-42 -41 -237 -155 -340 -199 -81 -34 -89 -41 -45 -41 99
1 286 72 387 147 32 24 72 89 72 118 0 26 -33 15 -74 -25z"/>
<path d="M8737 5814 c-33 -33 53 -59 199 -59 117 1 194 21 194 52 0 12 -10 13
-52 6 -67 -10 -218 -10 -283 0 -28 5 -54 5 -58 1z"/>
<path d="M8830 5646 c0 -21 23 -26 122 -26 89 0 168 15 168 32 0 4 -65 8 -145
8 -117 0 -145 -3 -145 -14z"/>
<path d="M394 4936 l-34 -34 0 -177 0 -177 34 -34 c26 -26 42 -34 70 -34 34 0
36 -1 36 -35 0 -32 -3 -35 -27 -35 -38 0 -91 -34 -103 -66 -6 -14 -10 -97 -10
-185 0 -206 15 -239 105 -239 36 0 36 0 33 -37 -3 -32 -7 -38 -28 -41 -56 -6
-71 -14 -90 -45 -18 -28 -20 -51 -20 -194 0 -89 4 -173 10 -187 5 -14 24 -35
42 -46 31 -19 51 -20 376 -20 l342 0 0 -147 c0 -166 8 -192 71 -231 51 -31
174 -69 285 -89 152 -26 500 -24 657 5 144 27 255 71 297 118 l30 35 0 553 0
553 -23 33 c-48 71 -232 129 -482 150 -116 11 -132 14 -150 35 -25 29 -57 45
-89 45 -23 0 -26 4 -26 35 0 33 2 35 33 35 39 0 72 21 92 60 22 42 21 328 0
370 -32 62 -10 60 -736 60 l-661 0 -34 -34z m246 -211 c0 -33 -2 -35 -35 -35
-33 0 -35 2 -35 35 0 33 2 35 35 35 33 0 35 -2 35 -35z m18 -251 c49 -6 52 -8
52 -35 l0 -29 -70 0 -70 0 0 35 c0 39 0 39 88 29z m752 -29 l0 -35 -315 0
-315 0 0 35 0 35 315 0 315 0 0 -35z m191 25 c14 0 19 -7 19 -30 l0 -30 -65 0
-65 0 0 36 0 37 46 -7 c26 -3 55 -6 65 -6z m454 -221 c157 -20 324 -75 338
-112 14 -36 -102 -92 -256 -123 -171 -34 -564 -28 -722 12 -285 72 -268 144
50 210 155 32 393 37 590 13z m-1415 -84 c0 -33 -2 -35 -35 -35 -33 0 -35 2
-35 35 0 33 2 35 35 35 33 0 35 -2 35 -35z m778 -215 c147 -33 360 -45 528
-32 148 12 339 48 407 77 l38 16 -3 -128 -3 -128 -54 -28 c-133 -68 -297 -92
-593 -84 -222 6 -316 20 -437 66 -90 34 -91 35 -91 181 l0 128 60 -25 c33 -13
100 -33 148 -43z m-288 -70 l0 -40 -172 2 c-172 3 -173 3 -176 26 -8 51 -5 52
178 52 l170 0 0 -40z m-420 0 l0 -30 -70 0 -70 0 0 30 0 30 70 0 70 0 0 -30z
m701 -279 c262 -55 534 -54 789 1 52 11 116 29 142 39 l48 19 0 -124 0 -125
-27 -19 c-199 -136 -865 -145 -1105 -15 l-48 26 0 133 0 133 53 -25 c30 -13
96 -33 148 -43z m-771 -6 c0 -33 -2 -35 -35 -35 -33 0 -35 2 -35 35 0 33 2 35
35 35 33 0 35 -2 35 -35z m670 -319 c106 -37 240 -57 425 -63 223 -8 491 26
609 77 l46 19 0 -124 0 -124 -30 -21 c-110 -78 -457 -127 -720 -101 -159 16
-307 48 -371 81 l-54 27 -3 138 c-2 111 0 136 10 128 7 -6 47 -23 88 -37z"/>
<path d="M1760 3775 c0 -34 1 -35 40 -35 39 0 40 1 40 35 0 34 -1 35 -40 35
-39 0 -40 -1 -40 -35z"/>
<path d="M1762 3388 c3 -30 6 -33 41 -36 36 -3 37 -3 37 32 0 35 -1 36 -41 36
-39 0 -40 -1 -37 -32z"/>
<path d="M1764 3096 c-3 -8 -4 -25 -2 -38 2 -19 9 -23 38 -23 33 0 35 2 38 38
3 36 3 37 -33 37 -22 0 -38 -6 -41 -14z"/>
<path d="M2364 4843 c-31 -43 -70 -95 -86 -116 -47 -60 -38 -85 50 -129 40
-20 86 -48 104 -63 38 -32 85 -32 80 0 -4 24 -46 70 -84 93 -16 9 -28 19 -28
22 0 4 37 13 83 20 100 17 319 19 373 3 252 -76 323 -105 426 -174 64 -44 83
-37 54 19 -36 69 -172 150 -354 211 -161 54 -288 62 -512 32 -36 -4 -69 -5
-73 -1 -5 4 1 24 12 44 25 43 39 116 23 116 -6 0 -37 -35 -68 -77z"/>
<path d="M2900 2621 c-89 -34 -180 -93 -247 -159 -62 -61 -161 -198 -223 -309
-36 -65 -44 -59 -66 45 -18 86 -33 122 -51 122 -23 0 -26 -26 -15 -115 15
-110 38 -189 67 -222 20 -24 30 -27 76 -26 30 1 76 11 102 22 27 12 64 21 83
21 57 0 124 21 139 43 20 28 19 34 -6 47 -29 16 -224 -16 -253 -42 -12 -10
-49 -11 -44 0 3 6 69 108 147 227 64 97 205 224 303 274 42 21 99 72 93 82 -9
14 -55 10 -105 -10z"/>
<path d="M8243 2613 c-10 -40 -7 -57 23 -142 55 -159 123 -269 242 -389 117
-120 230 -190 457 -287 127 -54 189 -75 228 -75 36 0 34 -9 -8 -50 -32 -31
-34 -35 -19 -51 15 -17 19 -17 45 -4 43 23 149 114 149 129 0 7 -10 21 -21 32
-12 10 -41 49 -65 87 -24 37 -48 67 -54 67 -14 0 -13 -46 2 -87 6 -18 9 -36 5
-39 -15 -16 -272 83 -417 159 -110 58 -156 92 -241 176 -122 122 -204 258
-275 454 -19 53 -40 61 -51 20z"/>
<path d="M10170 2359 c-125 -24 -268 -138 -351 -279 -47 -82 -169 -355 -169
-381 0 -22 -16 -33 -75 -53 -61 -20 -148 -93 -176 -149 -17 -32 -20 -54 -17
-108 4 -82 16 -99 52 -75 l26 16 0 -35 c0 -68 49 -148 110 -180 41 -21 112
-28 161 -15 78 21 133 79 153 163 l6 27 454 0 454 0 7 -37 c10 -54 41 -100 88
-131 36 -24 50 -27 122 -27 72 0 86 3 124 28 45 30 78 75 88 119 5 26 9 27 72
30 l66 3 -1 105 c-1 91 -4 113 -27 164 -74 163 -173 233 -358 254 l-62 7 -17
65 c-37 142 -126 307 -201 375 -48 43 -139 88 -224 110 -65 16 -230 19 -305 4z
m60 -34 c0 -8 -14 -17 -37 -21 -21 -4 -60 -15 -86 -25 -54 -21 -67 -23 -67 -9
0 19 118 68 168 69 13 1 22 -5 22 -14z m75 6 c7 -12 -12 -24 -25 -16 -11 7 -4
25 10 25 5 0 11 -4 15 -9z m232 -89 c22 -14 44 -134 50 -274 l6 -138 -262 0
-261 0 0 63 c0 81 35 306 50 321 22 22 107 34 255 35 83 0 155 -3 162 -7z
m177 -121 c19 -26 42 -67 51 -91 40 -111 52 -147 59 -173 l7 -28 -53 3 -53 3
-7 50 c-19 124 -42 232 -54 257 -18 34 -17 39 1 32 8 -3 30 -27 49 -53z m-740
-36 c-8 -44 -17 -123 -20 -176 l-7 -97 -57 -6 c-61 -7 -90 -1 -90 19 0 25 41
131 76 194 33 59 103 155 109 149 2 -2 -3 -39 -11 -83z m986 -383 c0 -5 -16
-16 -35 -25 -19 -9 -51 -39 -71 -67 -38 -53 -54 -62 -54 -31 0 24 66 110 93
121 28 11 67 12 67 2z m-1169 -52 c41 -11 129 -84 129 -106 0 -24 -22 -16 -60
21 -20 20 -62 46 -93 59 -76 31 -59 49 24 26z m1007 -131 c-2 -6 -8 -10 -13
-10 -5 0 -11 4 -13 10 -2 6 4 11 13 11 9 0 15 -5 13 -11z m-850 -27 c2 -7 -3
-12 -12 -12 -9 0 -16 7 -16 16 0 17 22 14 28 -4z m-282 -143 c3 -6 15 -9 25
-6 14 4 21 -2 26 -20 8 -34 -9 -59 -38 -55 -12 1 -26 -3 -29 -9 -5 -6 -10 0
-14 14 -5 20 -14 27 -39 30 -31 4 -31 4 6 5 32 2 37 5 37 27 0 26 14 33 26 14z
m1359 -7 c19 4 25 1 25 -13 0 -10 10 -25 22 -33 12 -9 17 -16 11 -16 -6 0 -13
-8 -15 -18 -4 -15 -13 -17 -41 -14 -33 4 -39 1 -54 -27 -10 -17 -22 -31 -27
-31 -6 0 -5 5 2 12 13 13 16 56 6 82 -4 9 -19 17 -38 17 l-31 2 35 6 c23 4 38
14 45 28 7 16 13 19 22 11 7 -6 24 -8 38 -6z m55 -153 c0 -6 -4 -7 -10 -4 -5
3 -10 11 -10 16 0 6 5 7 10 4 6 -3 10 -11 10 -16z"/>
<path d="M5847 2062 c-32 -35 -38 -75 -38 -271 -1 -202 8 -263 47 -347 33 -70
100 -69 132 4 21 49 29 342 12 452 -18 114 -18 116 -46 149 -30 36 -81 42
-107 13z m76 -20 c71 -78 91 -459 32 -604 -10 -25 -50 -22 -67 5 -35 56 -58
196 -58 358 0 134 18 225 47 246 22 17 27 16 46 -5z"/>
<path d="M3688 2063 c-22 -5 -22 -12 -4 -32 11 -13 16 -78 21 -303 l8 -288
-22 0 c-14 0 -21 -5 -18 -12 2 -8 23 -13 57 -13 34 0 55 5 58 13 2 7 -5 12
-17 12 -13 0 -22 8 -25 23 -9 40 -27 542 -21 559 4 9 16 18 27 21 11 3 17 10
13 16 -6 11 -44 13 -77 4z"/>
<path d="M6451 2061 c-54 -7 -66 -28 -19 -33 l33 -3 8 -185 c5 -102 10 -239
10 -304 2 -92 5 -120 16 -124 13 -4 12 172 -3 593 -1 26 3 30 27 33 15 2 27 9
27 18 0 15 -19 16 -99 5z"/>
<path d="M7828 1983 c-56 -65 -53 -133 12 -267 42 -86 50 -112 50 -159 0 -86
-28 -137 -75 -137 -15 0 -24 -4 -20 -10 3 -5 19 -10 35 -10 21 0 36 9 56 35
24 32 27 44 27 119 0 78 -3 89 -37 151 -40 73 -66 139 -66 169 0 40 24 87 48
93 12 3 21 10 19 17 -6 18 -32 18 -49 -1z"/>
<path d="M4248 1984 c-12 -11 2 -24 26 -24 29 0 36 -21 36 -110 0 -118 24
-430 33 -430 9 0 7 67 -9 413 l-6 127 31 0 c17 0 31 5 31 10 0 6 -15 10 -32
10 -18 0 -49 3 -68 6 -19 3 -38 2 -42 -2z"/>
<path d="M4690 1721 c0 -258 8 -338 30 -315 5 5 5 37 0 79 -5 39 -9 103 -10
143 0 64 2 72 19 72 20 0 23 -11 40 -120 18 -116 38 -180 57 -180 17 0 17 -3
3 40 -6 19 -15 51 -19 70 -5 19 -14 53 -19 75 -29 115 -31 137 -17 169 31 73
36 89 36 122 0 67 -42 114 -101 114 -18 0 -19 -10 -19 -269z m82 204 c17 -60
-16 -192 -45 -182 -8 2 -13 39 -15 111 l-3 107 27 -3 c21 -2 30 -10 36 -33z"/>
<path d="M5502 1979 c3 -8 13 -16 24 -17 10 -2 23 -8 27 -12 5 -4 13 -93 19
-196 11 -222 15 -293 17 -316 0 -10 6 -18 12 -18 8 0 9 36 5 123 -3 67 -9 188
-12 270 l-6 147 31 0 c17 0 31 5 31 10 0 6 -13 10 -29 10 -15 0 -50 3 -76 7
-38 5 -47 3 -43 -8z"/>
<path d="M6126 1974 c-4 -11 -10 -144 -13 -298 -5 -237 -4 -278 8 -274 11 4
15 34 17 138 2 121 10 161 30 158 18 -2 32 3 32 11 0 5 -10 11 -22 13 -22 3
-23 8 -26 98 -2 52 0 106 3 119 5 21 10 23 45 17 23 -4 41 -2 45 5 10 16 2 20
-57 26 -47 5 -56 3 -62 -13z"/>
<path d="M6756 1982 c-3 -5 -1 -49 4 -98 17 -162 12 -177 -57 -167 l-33 5 0
130 c0 112 -2 129 -16 126 -13 -3 -15 -35 -14 -270 0 -148 3 -275 6 -283 16
-42 24 -1 24 126 l0 142 42 -7 c22 -4 45 -9 50 -12 4 -3 8 -63 8 -135 0 -108
2 -129 15 -129 18 0 19 42 8 368 -5 162 -9 212 -19 212 -7 0 -15 -4 -18 -8z"/>
<path d="M7570 1977 c-37 -19 -52 -60 -67 -187 -20 -164 2 -342 47 -377 23
-19 81 -15 118 7 l32 20 2 90 c1 49 2 98 2 108 1 13 -9 18 -46 20 -51 3 -68
-14 -20 -20 26 -3 27 -5 30 -75 4 -112 -34 -162 -92 -120 -36 27 -60 297 -36
407 18 79 31 101 62 107 16 3 27 11 25 17 -5 16 -29 18 -57 3z"/>
<path d="M3883 1968 c-11 -17 -12 -518 -1 -540 25 -50 29 -11 24 208 -2 124
-2 232 1 240 7 19 23 18 23 -1 0 -8 4 -23 10 -33 5 -9 28 -73 50 -142 23 -69
45 -134 49 -145 26 -63 31 -78 31 -99 0 -12 6 -30 13 -40 12 -16 15 -17 29 -3
11 12 17 52 24 159 12 193 12 397 -1 400 -6 2 -13 -83 -18 -227 -4 -126 -10
-236 -13 -244 -4 -11 -8 -10 -19 5 -8 10 -15 26 -15 35 0 16 -34 128 -49 164
-5 11 -16 36 -24 55 -28 63 -40 94 -61 154 -21 61 -38 77 -53 54z"/>
<path d="M4487 1973 c-4 -3 -7 -134 -7 -290 l0 -283 60 0 c33 0 60 4 60 10 0
6 -15 10 -33 10 -53 0 -57 10 -57 162 l0 138 35 0 c19 0 35 4 35 8 0 15 -24
32 -47 32 -22 0 -23 2 -23 96 l0 96 40 -7 c32 -5 40 -4 40 8 0 8 -7 18 -16 21
-21 8 -79 8 -87 -1z"/>
<path d="M4927 1858 c-3 -68 -4 -190 -2 -273 3 -82 5 -156 5 -163 0 -8 5 -12
11 -10 8 3 11 76 10 241 -1 131 2 237 7 237 5 0 14 -10 20 -22 12 -25 91 -255
123 -358 30 -97 37 -110 52 -104 19 7 35 169 39 393 2 120 0 175 -8 178 -8 3
-13 -56 -18 -189 -7 -210 -15 -298 -26 -298 -6 0 -11 15 -42 123 -11 40 -44
125 -73 192 -20 45 -27 65 -45 120 -9 28 -23 51 -31 53 -14 2 -17 -16 -22
-120z"/>
<path d="M5295 1968 c-2 -7 -3 -137 -2 -288 l2 -275 58 -3 c35 -2 57 1 57 8 0
5 -11 10 -24 10 -56 0 -56 1 -56 156 l0 144 30 0 c41 0 39 27 -2 38 -36 9 -34
1 -30 132 l2 60 40 -6 c43 -7 55 7 21 26 -27 14 -91 13 -96 -2z"/>
<path d="M6890 1971 c0 -5 12 -11 28 -13 l27 -3 3 -250 c2 -229 1 -251 -15
-263 -16 -11 -16 -14 -3 -23 8 -5 31 -7 50 -4 19 2 43 5 53 5 9 0 17 5 17 10
0 6 -11 10 -24 10 -13 0 -28 6 -34 13 -10 12 -18 251 -14 408 2 79 4 87 23 92
12 3 18 10 14 16 -8 13 -125 15 -125 2z"/>
<path d="M7142 1963 c-4 -10 -7 -137 -7 -283 0 -229 2 -265 15 -265 13 0 15
32 15 232 0 148 4 233 10 234 6 1 33 -65 61 -147 27 -82 60 -176 72 -210 12
-33 22 -70 22 -81 0 -11 6 -26 14 -32 28 -23 40 16 48 153 21 391 21 403 9
411 -7 4 -14 5 -16 3 -2 -2 -7 -103 -10 -223 -7 -253 -9 -272 -30 -255 -8 7
-15 19 -15 28 0 22 -40 151 -62 202 -46 102 -56 127 -68 165 -22 69 -29 85
-40 85 -6 0 -14 -8 -18 -17z"/>
<path d="M1212 1914 c-41 -28 -24 -94 24 -94 30 0 276 -337 268 -367 -14 -51
48 -92 86 -58 11 10 20 26 20 35 0 12 38 41 106 84 144 90 165 90 308 4 82
-50 105 -69 112 -93 12 -40 55 -56 84 -30 45 40 14 100 -48 93 -34 -4 -242
118 -242 143 0 23 -33 49 -62 49 -28 0 -44 -14 -49 -44 -3 -12 -46 -45 -113
-86 -91 -56 -114 -66 -139 -61 -25 5 -52 36 -153 176 -103 142 -123 174 -118
197 4 19 -1 33 -15 47 -25 25 -39 26 -69 5z"/>
<path d="M1155 1648 c-3 -7 -4 -227 -3 -488 l3 -475 85 0 85 0 3 488 2 487
-85 0 c-59 0 -87 -4 -90 -12z"/>
<path d="M1790 1050 l0 -371 83 3 82 3 3 368 2 367 -85 0 -85 0 0 -370z"/>
<path d="M1472 958 l3 -273 83 -3 82 -3 0 276 0 275 -85 0 -85 0 2 -272z"/>
<path d="M2100 955 l0 -275 85 0 85 0 0 275 0 275 -85 0 -85 0 0 -275z"/>
</g>
</svg>
