<?xml version="1.0" standalone="no"?>
<!DOCTYPE svg PUBLIC "-//W3C//DTD SVG 20010904//EN"
 "http://www.w3.org/TR/2001/REC-SVG-20010904/DTD/svg10.dtd">
<svg version="1.0" xmlns="http://www.w3.org/2000/svg"
 width="300.000000pt" height="421.000000pt" viewBox="0 0 300.000000 421.000000"
 preserveAspectRatio="xMidYMid meet">
<metadata>
Created by potrace 1.10, written by Peter Selinger 2001-2011
</metadata>
<g transform="translate(0.000000,421.000000) scale(0.050000,-0.050000)"
fill="#a12528" stroke="none">
<path d="M1940 8284 c-92 -63 -121 -105 -139 -198 -20 -106 6 -322 50 -419 16
-35 29 -86 29 -115 0 -29 8 -52 18 -52 10 0 24 -33 31 -72 8 -40 21 -88 31
-105 9 -18 35 -71 57 -117 54 -110 86 -166 128 -224 44 -60 44 -110 1 -153
-48 -48 -106 -162 -106 -208 0 -21 -9 -44 -20 -51 -11 -7 -20 -65 -20 -130 0
-65 9 -123 20 -130 11 -7 20 -38 20 -69 0 -31 14 -67 30 -81 17 -14 30 -37 30
-51 0 -34 215 -249 249 -249 14 0 37 -13 51 -30 14 -16 41 -30 60 -30 19 0 46
-13 59 -28 41 -50 304 -64 921 -50 202 5 400 -28 400 -67 0 -9 20 -25 45 -35
66 -29 111 -61 203 -145 77 -70 157 -96 180 -59 11 18 -1 29 -158 153 -55 43
-109 88 -120 100 -11 12 -56 38 -100 58 -44 21 -104 50 -133 65 -41 22 -167
28 -571 27 -549 -2 -526 -5 -743 99 -74 35 -263 213 -263 247 0 12 -14 38 -32
57 -43 48 -42 364 2 431 16 25 30 58 30 73 0 92 73 95 137 5 151 -211 346
-307 513 -254 95 30 230 129 230 168 0 10 14 31 30 48 17 16 30 65 30 108 0
66 7 79 40 79 22 0 40 -9 40 -19 0 -27 126 -146 226 -214 46 -31 87 -64 91
-72 27 -60 242 -12 313 70 l73 85 49 -60 c27 -33 69 -85 94 -115 24 -30 55
-55 68 -55 13 0 31 -11 40 -25 52 -82 333 -133 358 -66 38 99 143 54 335 -143
130 -134 149 -166 204 -363 31 -108 33 -141 12 -230 -14 -56 -32 -139 -41
-183 -33 -158 -99 -248 -126 -169 -33 99 -283 -28 -283 -144 0 -147 221 -189
327 -62 l63 75 60 -70 c33 -38 69 -88 79 -110 10 -22 36 -70 58 -106 47 -77 8
-115 -57 -56 -41 36 -376 47 -438 13 -19 -10 -78 -39 -130 -63 -52 -25 -95
-57 -95 -72 0 -27 10 -37 186 -186 101 -85 141 -137 251 -328 65 -112 72 -462
11 -572 -112 -203 -224 -280 -409 -280 l-136 0 11 145 c9 120 5 151 -21 173
-18 15 -33 38 -33 51 0 45 -91 111 -153 111 -211 0 -197 -367 18 -465 30 -14
55 -39 55 -57 0 -37 -135 -178 -171 -178 -13 0 -35 -14 -49 -30 -37 -44 -296
-41 -383 5 -98 52 -293 253 -309 318 -8 31 -24 63 -36 71 -30 20 -30 540 0
578 12 15 28 53 36 83 7 30 22 55 32 55 11 0 20 14 20 30 0 94 407 390 537
390 23 0 43 9 43 20 0 11 20 20 44 20 27 0 85 42 150 110 l106 109 0 149 0
149 -96 99 c-85 88 -107 99 -201 108 -72 7 -122 25 -159 58 -282 250 -981 197
-1280 -96 -15 -14 -35 -26 -44 -26 -45 0 -460 -448 -460 -497 0 -13 -8 -23
-17 -23 -17 0 -114 -144 -189 -280 -22 -38 -46 -74 -54 -80 -8 -5 -21 -30 -29
-55 -7 -25 -20 -45 -29 -45 -8 0 -35 -38 -60 -85 -24 -47 -62 -112 -83 -145
-21 -33 -48 -78 -59 -100 -11 -22 -38 -67 -60 -100 -22 -33 -49 -78 -60 -100
-12 -22 -61 -112 -110 -200 -49 -88 -122 -227 -161 -310 -39 -82 -80 -163 -90
-180 -11 -16 -24 -43 -30 -60 -6 -16 -24 -55 -40 -87 -16 -31 -29 -68 -29 -83
0 -15 -15 -57 -33 -93 -77 -157 -87 -182 -87 -225 0 -24 -13 -62 -29 -83 -17
-22 -30 -63 -30 -92 -1 -28 -15 -84 -31 -124 -17 -39 -30 -102 -30 -139 0 -37
-14 -109 -32 -161 -41 -121 -35 -954 7 -968 14 -5 25 -26 25 -47 0 -144 231
-326 390 -308 99 11 230 65 230 95 0 8 11 15 25 15 14 0 84 58 156 127 72 70
151 138 175 151 24 13 44 40 44 61 0 39 36 87 165 224 41 43 75 86 75 94 0 9
27 47 59 84 33 38 69 80 80 93 12 13 21 30 21 37 0 7 26 46 57 86 87 111 340
534 355 592 7 28 20 56 30 62 46 29 17 179 -47 253 -135 155 -329 79 -494
-194 -27 -44 -55 -84 -62 -90 -7 -5 -34 -55 -61 -110 -26 -55 -55 -103 -63
-107 -8 -3 -15 -21 -15 -40 0 -18 -14 -59 -30 -90 -17 -32 -30 -71 -30 -87 0
-17 -12 -58 -27 -93 -42 -96 -79 -325 -82 -501 l-2 -157 -175 -167 c-281 -270
-454 -318 -596 -167 -128 135 -195 601 -136 946 13 79 30 197 37 263 7 66 23
140 37 164 13 24 24 74 24 112 0 38 14 80 30 94 17 14 30 53 31 87 0 35 13 80
30 102 16 21 29 55 29 74 0 20 15 70 33 111 18 42 44 103 59 136 60 139 292
608 348 700 32 55 68 119 78 143 11 24 29 49 41 56 11 7 21 31 21 52 0 22 9
39 20 39 12 0 29 20 38 45 10 25 41 79 70 121 29 42 52 80 52 85 0 15 127 218
154 245 14 15 26 35 26 46 0 22 134 223 259 388 142 187 419 454 497 479 22 7
45 26 52 42 6 16 28 29 50 29 22 0 45 8 51 18 6 10 35 24 66 31 30 8 60 22 66
32 6 10 56 24 110 30 54 7 118 22 142 33 45 22 96 17 297 -29 277 -64 356
-119 253 -178 -123 -69 -90 -357 40 -357 20 0 37 -9 37 -20 0 -35 102 -22 161
21 92 65 97 187 14 303 -42 60 9 84 72 35 238 -188 152 -475 -177 -591 -180
-64 -250 -95 -250 -112 0 -9 -14 -16 -31 -16 -16 0 -35 -13 -42 -30 -6 -16
-20 -30 -31 -30 -18 0 -39 -22 -194 -200 -33 -38 -66 -95 -73 -125 -7 -30 -19
-55 -27 -55 -52 0 -87 -432 -48 -592 84 -348 496 -679 734 -589 30 12 72 21
94 21 59 0 206 118 268 215 58 92 81 101 141 56 43 -33 160 -41 178 -13 6 9
42 23 81 31 38 7 70 20 70 29 0 8 21 25 48 37 52 24 232 247 232 288 0 15 14
63 29 107 37 102 38 246 1 310 -16 28 -29 74 -29 103 -1 28 -14 63 -31 77 -16
14 -30 40 -30 57 0 18 -36 74 -80 123 -44 50 -80 97 -80 105 0 8 -45 48 -101
88 -158 113 -131 141 175 180 84 11 212 -22 332 -87 107 -56 145 44 74 193 -8
17 -31 67 -52 111 -38 80 -156 210 -190 210 -30 0 -20 93 12 120 17 14 30 41
30 60 0 20 13 61 30 93 41 79 41 461 -1 516 -16 21 -29 51 -29 67 0 58 -175
257 -335 381 -88 68 -106 111 -57 130 130 49 33 633 -104 633 -11 0 -30 14
-44 30 -41 49 -108 34 -181 -41 l-69 -71 2 -199 c3 -228 74 -375 183 -378 41
-1 29 -34 -26 -70 -55 -36 -191 -4 -271 62 -17 15 -37 27 -45 27 -73 0 -234
251 -189 296 46 46 33 599 -17 705 -145 306 -399 275 -394 -48 2 -94 15 -174
35 -215 18 -35 32 -80 32 -99 0 -19 14 -45 30 -59 17 -14 30 -45 30 -70 0 -25
14 -51 30 -57 17 -7 30 -28 30 -47 1 -20 23 -57 50 -83 80 -75 65 -136 -58
-238 -42 -34 -142 -31 -172 5 -14 17 -36 30 -49 30 -41 0 -328 287 -341 340
-6 28 -3 91 6 142 20 102 -7 563 -35 628 -10 22 -23 65 -30 95 -6 30 -21 55
-31 55 -11 0 -20 13 -20 28 0 47 -129 115 -189 100 -88 -22 -176 -145 -163
-228 33 -202 53 -289 71 -307 12 -12 21 -36 21 -55 0 -30 28 -96 83 -198 9
-16 29 -58 44 -91 15 -34 52 -88 83 -120 79 -85 97 -143 60 -195 -16 -24 -30
-59 -30 -79 0 -85 -125 -223 -218 -242 -243 -48 -645 300 -492 427 17 14 30
41 30 61 0 20 13 61 29 92 38 75 80 387 62 459 -8 32 -20 110 -28 173 -8 63
-25 125 -39 139 -13 13 -24 44 -24 68 0 24 -13 54 -30 68 -16 14 -30 35 -30
47 0 20 -84 104 -188 188 -42 34 -112 30 -172 -11z m219 -128 c39 -42 81 -124
142 -276 41 -106 50 -566 11 -669 -16 -45 -32 -103 -36 -131 -7 -60 -71 -79
-87 -26 -7 20 -37 90 -67 156 -96 207 -122 271 -122 298 0 15 -13 53 -30 85
-16 31 -30 80 -30 108 0 28 -10 61 -23 74 -41 41 -33 334 11 383 53 58 176 57
231 -2z m819 -218 c41 -40 63 -83 65 -125 4 -80 5 -86 33 -183 25 -84 33 -474
11 -496 -7 -8 -34 31 -60 85 -26 55 -56 104 -67 111 -11 7 -20 29 -20 50 0 20
-13 62 -28 93 -156 318 -110 642 66 465z m823 -302 c33 -36 59 -83 60 -105 0
-23 13 -63 29 -91 42 -73 42 -520 1 -520 -30 0 -131 189 -131 244 0 17 -13 42
-30 56 -16 14 -30 44 -30 67 0 24 -14 69 -30 100 -43 82 -40 251 5 285 50 38
61 35 126 -36z m766 -493 c90 -36 154 -445 81 -525 -63 -70 -124 -39 -215 108
-50 80 -50 372 0 408 38 29 77 31 134 9z m-684 -1836 c21 -18 37 -50 37 -70 0
-20 9 -37 20 -37 34 0 23 -134 -12 -148 -134 -51 -225 112 -133 239 42 58 42
58 88 16z m1017 -77 c20 -24 16 -37 -23 -69 -59 -49 -129 -52 -155 -6 -43 78
118 147 178 75z m-692 -1482 c79 -30 145 -297 79 -322 -45 -17 -167 149 -167
227 0 23 42 107 53 107 2 0 18 -5 35 -12z m-1788 -1124 c55 -44 60 -220 10
-296 -16 -26 -30 -57 -30 -69 0 -13 -27 -57 -60 -99 -33 -42 -60 -89 -60 -106
0 -17 -7 -34 -15 -37 -18 -8 -105 -130 -105 -147 0 -6 -9 -23 -21 -36 -12 -13
-65 -87 -120 -164 -54 -77 -108 -151 -119 -164 -11 -13 -20 -31 -20 -38 0 -48
-148 -192 -161 -156 -8 21 -4 51 8 66 13 15 34 96 46 180 34 220 59 322 85
348 12 12 22 41 22 64 0 22 12 59 27 81 15 21 34 61 43 88 31 98 177 314 282
416 121 118 126 119 188 69z"/>
<path d="M4615 2888 c-7 -7 31 -67 84 -135 141 -180 245 -360 352 -608 18 -41
45 -100 61 -132 15 -31 28 -79 28 -106 0 -27 11 -69 24 -93 58 -105 107 -577
69 -654 -18 -37 -33 -77 -33 -90 0 -25 -65 -86 -135 -125 -59 -33 -146 -31
-194 6 -21 16 -50 29 -63 29 -49 0 -468 415 -468 464 0 7 -16 29 -35 48 -31
31 -34 73 -29 382 5 287 0 354 -25 391 -17 24 -31 56 -31 71 0 38 -82 103
-132 103 -77 2 -197 -189 -153 -244 11 -14 26 -65 33 -114 8 -49 21 -98 30
-110 9 -12 23 -48 30 -81 16 -71 134 -314 161 -334 33 -23 18 -479 -18 -547
-17 -32 -31 -71 -31 -85 0 -39 -74 -176 -125 -230 -213 -228 -587 -90 -756
279 -31 68 -66 129 -78 136 -31 19 -26 226 7 288 175 330 219 983 66 983 -50
0 -154 -94 -154 -139 0 -18 -14 -52 -31 -76 -26 -38 -31 -118 -28 -510 3 -463
2 -465 -48 -555 -28 -49 -72 -130 -97 -179 -25 -50 -59 -105 -76 -123 -116
-129 -168 -176 -234 -210 -42 -21 -80 -44 -86 -50 -41 -51 -347 -55 -451 -6
-72 34 -229 199 -229 241 0 13 -13 49 -29 80 -16 32 -35 92 -42 136 -16 103
-48 57 -49 -70 0 -160 223 -479 335 -479 20 0 55 -13 76 -29 43 -33 259 -43
278 -13 6 10 35 23 66 30 74 18 185 74 234 119 23 20 61 51 86 68 49 32 225
282 225 319 0 11 14 32 30 46 17 14 29 35 28 48 -6 47 3 92 17 92 22 0 85
-118 85 -159 0 -20 14 -42 30 -48 17 -7 30 -28 30 -47 0 -48 190 -250 295
-314 95 -59 320 -74 408 -27 95 50 192 137 228 205 21 38 45 70 54 70 8 0 15
23 15 51 0 28 14 79 32 112 21 42 30 107 28 204 -7 229 0 238 80 118 503 -757
1148 -491 938 386 -31 132 -101 371 -118 409 -8 17 -28 62 -44 100 -50 117
-116 247 -157 310 -21 33 -48 78 -59 100 -34 69 -68 115 -123 171 -29 29 -59
73 -66 96 -13 41 -87 60 -116 31z m-474 -571 c28 -50 86 -530 70 -571 -16 -41
-51 -12 -51 43 0 25 -13 57 -30 71 -16 14 -30 50 -30 80 0 31 -13 81 -30 113
-30 57 -40 217 -18 275 17 45 63 40 89 -11z m-868 -190 c-6 -70 -21 -144 -32
-166 -12 -21 -21 -74 -21 -118 0 -44 -10 -106 -22 -137 -12 -31 -28 -95 -35
-142 -27 -175 -53 -74 -48 186 4 273 43 458 103 503 53 40 68 7 55 -126z"/>
</g>
</svg>
